<svg width="200" height="200" viewBox="0 0 200 200" fill="none" xmlns="http://www.w3.org/2000/svg">
  <rect width="200" height="200" rx="20" fill="#F7F3E8"/>
  <rect x="50" y="80" width="100" height="80" rx="4" fill="#3C6E71" opacity="0.8"/>
  <rect x="60" y="90" width="15" height="20" rx="2" fill="#F7F3E8"/>
  <rect x="80" y="90" width="15" height="20" rx="2" fill="#F7F3E8"/>
  <rect x="105" y="90" width="15" height="20" rx="2" fill="#F7F3E8"/>
  <rect x="125" y="90" width="15" height="20" rx="2" fill="#F7F3E8"/>
  <rect x="60" y="115" width="15" height="20" rx="2" fill="#F7F3E8"/>
  <rect x="80" y="115" width="15" height="20" rx="2" fill="#F7F3E8"/>
  <rect x="105" y="115" width="15" height="20" rx="2" fill="#F7F3E8"/>
  <rect x="125" y="115" width="15" height="20" rx="2" fill="#F7F3E8"/>
  <rect x="90" y="140" width="20" height="20" rx="2" fill="#E76F51"/>
  <path d="M50 80 L100 50 L150 80" stroke="#3C6E71" stroke-width="3" fill="none"/>
  <circle cx="130" cy="100" r="3" fill="#E76F51"/>
</svg>