<svg width="200" height="200" viewBox="0 0 200 200" fill="none" xmlns="http://www.w3.org/2000/svg">
  <rect width="200" height="200" rx="20" fill="#F7F3E8"/>
  <path d="M100 60 L120 80 L100 140 L80 80 Z" fill="#3C6E71" opacity="0.8"/>
  <path d="M100 70 L110 85 L100 125 L90 85 Z" fill="#F7F3E8"/>
  <circle cx="100" cy="95" r="8" fill="#E76F51"/>
  <rect x="95" y="105" width="10" height="15" rx="2" fill="#E76F51"/>
  <circle cx="70" cy="70" r="15" fill="#3C6E71" opacity="0.6"/>
  <circle cx="130" cy="70" r="15" fill="#3C6E71" opacity="0.6"/>
  <circle cx="70" cy="130" r="15" fill="#3C6E71" opacity="0.6"/>
  <circle cx="130" cy="130" r="15" fill="#3C6E71" opacity="0.6"/>
  <path d="M70 70 L85 85 M130 70 L115 85 M70 130 L85 115 M130 130 L115 115" stroke="#E76F51" stroke-width="2"/>
  <circle cx="100" cy="40" r="6" fill="#E76F51"/>
  <path d="M100 46 L100 54" stroke="#E76F51" stroke-width="2"/>
</svg>